# xmcd CD database file
#
# Track frame offsets:
#	150
#	21277
#	38915
#	54443
#	68058
#	88030
#	103910
#	119800
#	134322
#	149140
#
# Disc length: 2161 seconds
#
# Revision: 0
# Processed by: cddbd v1.5.1PL0 Copyright (c) Steve Scherf et al.
# Submitted via: CDex 1.51
#
DISCID=99086f0a
DTITLE=Brad Maule - Living It Up
DYEAR=1900
DGENRE=Country
TTITLE0=All Good Years
TTITLE1=Cut Me, I Bleed Country
TTITLE2=I'm Goin' Rodeo
TTITLE3=Living it up
TTITLE4=Momma Blue
TTITLE5=Raining on the Ocean
TTITLE6=Rodeo
TTITLE7=Say Hello to Goodbye
TTITLE8=It Takes One to Know One
TTITLE9=You're Still Wrong
EXTD=
EXTT0=
EXTT1=
EXTT2=
EXTT3=
EXTT4=
EXTT5=
EXTT6=
EXTT7=
EXTT8=
EXTT9=
PLAYORDER=
